<?xml version="1.0" encoding="iso-8859-1"?>
<!-- Generator: Adobe Illustrator 16.0.0, SVG Export Plug-In . SVG Version: 6.00 Build 0)  -->
<!DOCTYPE svg PUBLIC "-//W3C//DTD SVG 1.1//EN" "http://www.w3.org/Graphics/SVG/1.1/DTD/svg11.dtd">
<svg version="1.1" id="Capa_1" xmlns="http://www.w3.org/2000/svg" xmlns:xlink="http://www.w3.org/1999/xlink" x="0px" y="0px"
	 width="614.48px" height="614.48px" viewBox="0 0 614.48 614.48" style="enable-background:new 0 0 614.48 614.48;"
	 xml:space="preserve">
<g>
	<g>
		<g>
			<path d="M460.175,47.828c0-5.281,4.302-9.562,9.562-9.562c5.262,0,9.562,4.301,9.562,9.562v248.701
				c0,3.661-2.081,6.861-5.12,8.481l-180.99,114.358c-3.281,2.061-7.321,1.881-10.362-0.12L101.376,304.61
				c-2.88-1.8-4.44-4.901-4.46-8.062h-0.02V153.045V9.562c0-5.261,4.301-9.562,9.562-9.562h0.24h401.306
				c5.281,0,9.562,4.301,9.562,9.562l-0.04,0.98l0.04,209.414c0,5.261-4.261,9.521-9.521,9.521c-5.26,0-9.521-4.281-9.521-9.521
				l-0.04-200.833H116.019v133.922v138.263l172.068,108.718l172.068-108.718V47.828H460.175z"/>
			<path d="M182.01,153.005c-5.281,0-9.562-4.301-9.562-9.562c0-5.281,4.281-9.562,9.562-9.562h211.295
				c5.279,0,9.562,4.301,9.562,9.562c0,5.281-4.281,9.562-9.562,9.562H182.01z"/>
			<path d="M182.01,210.415c-5.281,0-9.562-4.281-9.562-9.562c0-5.281,4.281-9.562,9.562-9.562h211.295
				c5.279,0,9.562,4.301,9.562,9.562c0,5.281-4.281,9.562-9.562,9.562H182.01z"/>
			<path d="M182.01,267.804c-5.281,0-9.562-4.301-9.562-9.562c0-5.281,4.281-9.562,9.562-9.562h135.422
				c5.28,0,9.562,4.301,9.562,9.562c0,5.281-4.28,9.562-9.562,9.562H182.01z"/>
			<path d="M182.03,95.616c-5.281,0-9.562-4.281-9.562-9.562c0-5.281,4.281-9.562,9.562-9.562h211.275
				c5.279,0,9.562,4.3,9.562,9.562c0,5.281-4.281,9.562-9.562,9.562H182.03z"/>
			<path d="M450.674,535.548c-5.28,0-9.562-4.301-9.562-9.562c0-5.263,4.301-9.562,9.562-9.562h76.492
				c5.281,0,9.562,4.3,9.562,9.562c0,5.261-4.28,9.562-9.562,9.562H450.674z"/>
			<path d="M72.552,249.501c5.281,0,9.562,4.3,9.562,9.562c0,5.261-4.3,9.562-9.562,9.562H60.21c-10.942,0-20.923,4.5-28.125,11.722
				c-7.221,7.221-11.702,17.183-11.702,28.125v247.04c0,10.941,4.481,20.924,11.682,28.146l0.02-0.021
				c7.221,7.222,17.183,11.723,28.125,11.723h494.041c10.941,0,20.923-4.501,28.124-11.723c7.223-7.222,11.723-17.184,11.723-28.125
				V308.45c0-10.921-4.5-20.903-11.723-28.125c-7.221-7.221-17.183-11.722-28.124-11.722h-12.343c-5.28,0-9.562-4.301-9.562-9.562
				c0-5.261,4.281-9.562,9.562-9.562h12.343c16.224,0,30.984,6.641,41.666,17.323c10.683,10.663,17.323,25.426,17.323,41.648
				v247.041c0,16.223-6.641,30.983-17.323,41.666c-10.661,10.683-25.442,17.323-41.666,17.323H60.21
				c-16.223,0-30.985-6.643-41.667-17.323l0.02-0.021l-0.02-0.021C7.881,586.436,1.24,571.693,1.24,555.491V308.45
				c0-16.223,6.641-30.985,17.303-41.646c10.662-10.682,25.444-17.323,41.667-17.323h12.342V249.501z"/>
		</g>
	</g>
</g>
<g>
</g>
<g>
</g>
<g>
</g>
<g>
</g>
<g>
</g>
<g>
</g>
<g>
</g>
<g>
</g>
<g>
</g>
<g>
</g>
<g>
</g>
<g>
</g>
<g>
</g>
<g>
</g>
<g>
</g>
</svg>
